<svg width="880" height="120" viewBox="0 0 880 120" fill="none" xmlns="http://www.w3.org/2000/svg">
<path fill-rule="evenodd" clip-rule="evenodd" d="M114.454 98.3577C120.594 99.3511 125.394 100.233 125.394 100.233C131.227 101.251 140.41 100.304 145.847 97.9799C145.847 97.9799 144.233 98.978 153.72 94.308C163.207 89.6379 166.705 86.4379 166.705 86.4379C169.857 84.089 172.233 79.0298 171.982 75.1388C171.982 75.1388 171.58 65.2707 169.602 50.5625C167.625 35.8542 166.207 30.0273 166.207 30.0273C165.24 25.2468 160.716 19.9657 156.022 18.4523C156.022 18.4523 138.321 10.0624 92.257 10.0003C92.1713 10 92.0856 10 92 10.0001C91.9144 10 91.8287 10 91.743 10C45.679 10.0624 27.9776 18.4523 27.9776 18.4523C23.2836 19.9657 18.76 25.2468 17.7932 30.0273C17.7932 30.0273 16.3752 35.8542 14.3977 50.5625C12.4203 65.2707 12.0183 75.1388 12.0183 75.1388C11.7665 79.0298 14.1435 84.089 17.295 86.4379C17.295 86.4379 20.7926 89.6379 30.2798 94.308C39.7671 98.978 38.1527 97.9799 38.1527 97.9799C43.5895 100.304 52.7726 101.251 58.6062 100.233C58.6062 100.233 63.1116 99.4052 68.9759 98.4502C69.9831 98.2116 70.6443 97.9273 70.7347 97.2835C71.1854 94.0711 72.3496 90.8891 74.5084 89.0014C77.1623 86.6809 77.4597 82.8845 76.7222 80.5384C76.6535 80.3199 76.6015 80.113 76.5653 79.917C73.1011 73.7054 68.5802 70.6686 64.21 65.1706C58.7148 58.2574 59.098 41.2978 60.4019 38.2271C61.7058 35.1564 67.7673 39.3424 77.998 52.4115C81.0143 56.2647 84.3115 63.1051 87.0135 69.0509C87.062 69.1324 87.1091 69.2201 87.1548 69.3143C87.5275 70.084 88.1012 70.0491 88.1767 70.0258C90.4916 69.3143 93.8386 69.3143 95.7058 70.0104C96.02 70.1275 96.4073 69.9046 96.6572 69.6178C99.4054 63.5451 102.817 56.3878 105.93 52.4115C116.16 39.3424 122.222 35.1564 123.526 38.2271C124.83 41.2978 125.213 58.2574 119.718 65.1706C115.247 70.7948 110.619 73.8436 107.126 80.3499C107.108 80.4118 107.09 80.4746 107.07 80.5384C106.332 82.8845 106.63 86.6809 109.284 89.0014C111.442 90.8891 112.607 94.0711 113.057 97.2835C113.136 97.8466 113.652 98.1346 114.454 98.3577Z" fill="url(#paint0_linear_1195_603)"/>
<path fill-rule="evenodd" clip-rule="evenodd" d="M114.454 98.3577C120.594 99.3511 125.394 100.233 125.394 100.233C131.227 101.251 140.41 100.304 145.847 97.9799C145.847 97.9799 144.233 98.978 153.72 94.308C163.207 89.6379 166.705 86.4379 166.705 86.4379C169.857 84.089 172.233 79.0298 171.982 75.1388C171.982 75.1388 171.58 65.2707 169.602 50.5625C167.625 35.8542 166.207 30.0273 166.207 30.0273C165.24 25.2468 160.716 19.9657 156.022 18.4523C156.022 18.4523 138.321 10.0624 92.257 10.0003C92.1713 10 92.0856 10 92 10.0001C91.9144 10 91.8287 10 91.743 10C45.679 10.0624 27.9776 18.4523 27.9776 18.4523C23.2836 19.9657 18.76 25.2468 17.7932 30.0273C17.7932 30.0273 16.3752 35.8542 14.3977 50.5625C12.4203 65.2707 12.0183 75.1388 12.0183 75.1388C11.7665 79.0298 14.1435 84.089 17.295 86.4379C17.295 86.4379 20.7926 89.6379 30.2798 94.308C39.7671 98.978 38.1527 97.9799 38.1527 97.9799C43.5895 100.304 52.7726 101.251 58.6062 100.233C58.6062 100.233 63.1116 99.4052 68.9759 98.4502C69.9831 98.2116 70.6443 97.9273 70.7347 97.2835C71.1854 94.0711 72.3496 90.8891 74.5084 89.0014C77.1623 86.6809 77.4597 82.8845 76.7222 80.5384C76.6535 80.3199 76.6015 80.113 76.5653 79.917C73.1011 73.7054 68.5802 70.6686 64.21 65.1706C58.7148 58.2574 59.098 41.2978 60.4019 38.2271C61.7058 35.1564 67.7673 39.3424 77.998 52.4115C81.0143 56.2647 84.3115 63.1051 87.0135 69.0509C87.062 69.1324 87.1091 69.2201 87.1548 69.3143C87.5275 70.084 88.1012 70.0491 88.1767 70.0258C90.4916 69.3143 93.8386 69.3143 95.7058 70.0104C96.02 70.1275 96.4073 69.9046 96.6572 69.6178C99.4054 63.5451 102.817 56.3878 105.93 52.4115C116.16 39.3424 122.222 35.1564 123.526 38.2271C124.83 41.2978 125.213 58.2574 119.718 65.1706C115.247 70.7948 110.619 73.8436 107.126 80.3499C107.108 80.4118 107.09 80.4746 107.07 80.5384C106.332 82.8845 106.63 86.6809 109.284 89.0014C111.442 90.8891 112.607 94.0711 113.057 97.2835C113.136 97.8466 113.652 98.1346 114.454 98.3577Z" fill="url(#paint1_radial_1195_603)"/>
<path fill-rule="evenodd" clip-rule="evenodd" d="M90.203 106.052C88.6245 105.304 87.618 103.671 87.618 103.671C87.1947 103.127 87.3337 102.988 87.9019 103.378C87.9019 103.378 89.5363 104.766 91.7483 104.766C93.9603 104.766 95.5947 103.378 95.5947 103.378C96.1728 102.999 96.2918 103.117 95.8826 103.666C95.8826 103.666 94.871 105.306 93.2878 106.054L93.0835 106.199C92.6143 106.53 92.234 107.263 92.234 107.83V108.205C92.234 108.432 92.2936 108.791 92.3685 109.01L92.3708 109.017C92.5184 109.448 92.2757 109.884 91.823 109.992C91.7816 110.002 91.7208 110.004 91.6711 109.992C91.2184 109.884 90.9757 109.448 91.1233 109.017L91.1256 109.01C91.2005 108.791 91.2601 108.432 91.2601 108.205V107.83C91.2601 107.263 90.8798 106.53 90.4106 106.199L90.203 106.052ZM103.664 91.1489C104.705 90.3309 105.131 88.6526 104.392 87.3882C103.653 86.1237 102.213 85.7746 101.264 86.9169C100.315 88.0592 100.27 91.2192 100.932 91.8717C101.594 92.5242 102.623 91.9669 103.664 91.1489ZM80.0767 91.1489C79.0352 90.3309 78.6093 88.6526 79.3487 87.3882C80.0881 86.1237 81.5277 85.7746 82.4769 86.9169C83.426 88.0592 83.4712 91.2192 82.8089 91.8717C82.1466 92.5242 81.1182 91.9669 80.0767 91.1489Z" fill="url(#paint2_linear_1195_603)"/>
<path fill-rule="evenodd" clip-rule="evenodd" d="M90.203 106.052C88.6245 105.304 87.618 103.671 87.618 103.671C87.1947 103.127 87.3337 102.988 87.9019 103.378C87.9019 103.378 89.5363 104.766 91.7483 104.766C93.9603 104.766 95.5947 103.378 95.5947 103.378C96.1728 102.999 96.2918 103.117 95.8826 103.666C95.8826 103.666 94.871 105.306 93.2878 106.054L93.0835 106.199C92.6143 106.53 92.234 107.263 92.234 107.83V108.205C92.234 108.432 92.2936 108.791 92.3685 109.01L92.3708 109.017C92.5184 109.448 92.2757 109.884 91.823 109.992C91.7816 110.002 91.7208 110.004 91.6711 109.992C91.2184 109.884 90.9757 109.448 91.1233 109.017L91.1256 109.01C91.2005 108.791 91.2601 108.432 91.2601 108.205V107.83C91.2601 107.263 90.8798 106.53 90.4106 106.199L90.203 106.052ZM103.664 91.1489C104.705 90.3309 105.131 88.6526 104.392 87.3882C103.653 86.1237 102.213 85.7746 101.264 86.9169C100.315 88.0592 100.27 91.2192 100.932 91.8717C101.594 92.5242 102.623 91.9669 103.664 91.1489ZM80.0767 91.1489C79.0352 90.3309 78.6093 88.6526 79.3487 87.3882C80.0881 86.1237 81.5277 85.7746 82.4769 86.9169C83.426 88.0592 83.4712 91.2192 82.8089 91.8717C82.1466 92.5242 81.1182 91.9669 80.0767 91.1489Z" fill="url(#paint3_radial_1195_603)"/>
<path fill-rule="evenodd" clip-rule="evenodd" d="M390.232 36.1528C389.059 36.8808 388.473 38.1145 388.473 39.8537C388.473 41.593 389.059 42.8469 390.232 43.6154C391.405 44.3839 392.962 44.7681 394.904 44.7681C396.845 44.7681 398.402 44.3839 399.575 43.6154C400.748 42.8469 401.335 41.593 401.335 39.8537C401.335 38.1145 400.748 36.8808 399.575 36.1528C398.402 35.3843 396.845 35 394.904 35C393.003 35 391.445 35.3843 390.232 36.1528ZM388.837 48.4085C389.16 48.8938 389.322 49.7432 389.322 50.9567V75.3467C389.322 76.5601 389.16 77.4095 388.837 77.8949C388.513 78.3803 387.886 78.623 386.956 78.623V78.987H402.852V78.623C401.921 78.623 401.294 78.3803 400.971 77.8949C400.688 77.4095 400.546 76.5601 400.546 75.3467V47.3164H386.956V47.6804C387.886 47.6804 388.513 47.9231 388.837 48.4085ZM748.385 36.1528C747.212 36.8808 746.625 38.1145 746.625 39.8537C746.625 41.593 747.212 42.8469 748.385 43.6154C749.558 44.3839 751.115 44.7681 753.056 44.7681C754.998 44.7681 756.555 44.3839 757.728 43.6154C758.901 42.8469 759.488 41.593 759.488 39.8537C759.488 38.1145 758.901 36.8808 757.728 36.1528C756.555 35.3843 754.998 35 753.056 35C751.155 35 749.598 35.3843 748.385 36.1528ZM746.989 48.4085C747.313 48.8938 747.475 49.7432 747.475 50.9567V75.3467C747.475 76.5601 747.313 77.4095 746.989 77.8949C746.666 78.3803 746.039 78.623 745.108 78.623V78.987H761.004V78.623C760.074 78.623 759.447 78.3803 759.123 77.8949C758.84 77.4095 758.699 76.5601 758.699 75.3467V47.3164H745.108V47.6804C746.039 47.6804 746.666 47.9231 746.989 48.4085ZM788.692 48.1051C787.438 48.1051 786.245 48.4691 785.112 49.1972C784.02 49.9252 783.05 50.9364 782.2 52.2308C781.351 53.5251 780.683 55.0419 780.198 56.7811C780.13 57.021 780.066 57.2637 780.007 57.5092H796.741C795.99 54.6057 794.965 52.3608 793.667 50.7746C792.252 48.9949 790.593 48.1051 788.692 48.1051ZM808.35 58.844H779.739C779.56 59.9444 779.47 61.0972 779.47 62.3023C779.47 64.5269 779.773 66.5089 780.38 68.2481C781.027 69.9469 781.937 71.403 783.11 72.6165C784.283 73.8299 785.739 74.7602 787.479 75.4074C789.218 76.0141 791.18 76.3174 793.364 76.3174C795.103 76.3174 796.782 76.1354 798.4 75.7714C800.058 75.3669 801.555 74.8209 802.889 74.1333C804.265 73.4052 805.438 72.576 806.408 71.6457C807.379 70.675 808.067 69.6233 808.471 68.4908L808.835 68.5515C808.309 70.1694 807.44 71.6457 806.226 72.9805C805.013 74.3153 803.536 75.468 801.797 76.4388C800.098 77.3691 798.177 78.0972 796.033 78.623C793.89 79.1083 791.584 79.351 789.117 79.351C786.002 79.351 783.151 78.9466 780.562 78.1376C777.973 77.3286 775.749 76.2163 773.888 74.8007C772.028 73.385 770.571 71.6862 769.52 69.7042C768.468 67.7223 767.942 65.5381 767.942 63.1517C767.942 60.8462 768.448 58.7024 769.459 56.7205C770.511 54.6981 771.947 52.9791 773.767 51.5634C775.587 50.1073 777.751 48.9747 780.259 48.1658C782.767 47.3568 785.477 46.9523 788.389 46.9523C790.856 46.9523 793.162 47.2355 795.305 47.8017C797.49 48.368 799.451 49.177 801.19 50.2286C802.93 51.2398 804.406 52.4937 805.62 53.9902C806.873 55.4464 807.783 57.0643 808.35 58.844ZM816.015 71.9491C816.702 72.8794 817.572 73.7288 818.624 74.4973C819.675 75.2658 820.848 75.9332 822.143 76.4995C823.477 77.0253 824.893 77.45 826.39 77.7736C827.927 78.0567 829.484 78.1983 831.061 78.1983C832.275 78.1983 833.387 78.1174 834.398 77.9556C835.409 77.7533 836.259 77.4904 836.946 77.1669C837.634 76.8028 838.16 76.3781 838.524 75.8927C838.928 75.3669 839.131 74.7804 839.131 74.1333C839.131 73.0007 838.564 72.03 837.432 71.221C836.299 70.3716 834.863 69.5829 833.124 68.8548C831.425 68.0863 829.565 67.338 827.542 66.61C825.56 65.8819 823.7 65.0325 821.961 64.0618C820.262 63.091 818.846 61.9585 817.714 60.6641C816.581 59.3698 816.015 57.8126 816.015 55.9924C816.015 54.5767 816.379 53.3026 817.107 52.1701C817.875 51.0376 818.967 50.087 820.383 49.3185C821.839 48.55 823.599 47.9635 825.661 47.559C827.724 47.1546 830.07 46.9523 832.699 46.9523C835.976 46.9523 838.888 47.2557 841.436 47.8624C844.025 48.4691 846.128 49.359 847.746 50.532V54.3543H847.382C846.897 53.4644 846.189 52.6352 845.258 51.8667C844.369 51.0982 843.357 50.4511 842.225 49.9252C841.092 49.359 839.859 48.9343 838.524 48.6511C837.23 48.3276 835.915 48.1658 834.58 48.1658C833.529 48.1658 832.558 48.2669 831.668 48.4691C830.778 48.6309 830.01 48.8938 829.362 49.2579C828.715 49.5814 828.21 49.9859 827.846 50.4713C827.482 50.9567 827.3 51.5027 827.3 52.1094C827.3 53.2015 827.866 54.1318 828.998 54.9003C830.131 55.6688 831.547 56.4171 833.245 57.1452C834.944 57.8328 836.785 58.5406 838.767 59.2687C840.789 59.9563 842.65 60.7855 844.348 61.7562C846.047 62.6865 847.463 63.7988 848.595 65.0932C849.728 66.3875 850.294 67.965 850.294 69.8256C850.294 71.3626 849.87 72.7176 849.02 73.8906C848.211 75.0636 847.018 76.0545 845.441 76.8635C843.904 77.6724 842.002 78.2994 839.737 78.7443C837.472 79.1488 834.884 79.351 831.971 79.351C829.14 79.351 826.45 79.1286 823.902 78.6836C821.394 78.1983 818.644 77.45 815.651 76.4388V71.9491H816.015ZM709.332 75.3467V60.2182C709.588 59.3202 709.932 58.4778 710.364 57.6912C711.092 56.4373 711.941 55.3655 712.912 54.4756C713.883 53.5858 714.934 52.8982 716.067 52.4128C717.199 51.887 718.312 51.624 719.404 51.624C720.213 51.624 720.981 51.7858 721.709 52.1094C722.437 52.3926 723.064 52.8779 723.59 53.5655C724.156 54.2127 724.601 55.0621 724.925 56.1138C725.248 57.125 725.41 58.3788 725.41 59.8754V75.5287C725.41 76.7421 725.228 77.5713 724.864 78.0163C724.541 78.4207 723.934 78.623 723.044 78.623V78.987H739.304V78.623C738.414 78.623 737.787 78.4005 737.423 77.9556C737.1 77.5107 736.938 76.641 736.938 75.3467V59.6327C736.938 57.4081 736.635 55.507 736.028 53.9296C735.421 52.3521 734.592 51.0578 733.54 50.0466C732.529 48.9949 731.336 48.2264 729.961 47.7411C728.626 47.2557 727.21 47.013 725.714 47.013C723.853 47.013 721.952 47.3568 720.01 48.0444C718.069 48.732 716.249 49.723 714.55 51.0173C712.892 52.2712 711.435 53.8082 710.182 55.6284C709.668 56.382 709.223 57.1754 708.847 58.0088V47.3164H695.742V47.6804C696.632 47.6804 697.238 47.9029 697.562 48.3478C697.926 48.7927 698.108 49.6623 698.108 50.9567V75.3467C698.108 76.641 697.926 77.5107 697.562 77.9556C697.238 78.4005 696.632 78.623 695.742 78.623V78.987H711.638V78.623C710.788 78.623 710.182 78.4005 709.818 77.9556C709.494 77.5107 709.332 76.641 709.332 75.3467ZM659.965 60.2182V75.3467C659.965 76.641 660.127 77.5107 660.451 77.9556C660.815 78.4005 661.421 78.623 662.271 78.623V78.987H646.375V78.623C647.265 78.623 647.871 78.4005 648.195 77.9556C648.559 77.5107 648.741 76.641 648.741 75.3467V50.9567C648.741 49.6623 648.559 48.7927 648.195 48.3478C647.871 47.9029 647.265 47.6804 646.375 47.6804V47.3164H659.48V58.0089C659.856 57.1755 660.301 56.382 660.815 55.6284C662.068 53.8082 663.525 52.2712 665.183 51.0173C666.882 49.723 668.702 48.732 670.643 48.0444C672.585 47.3568 674.486 47.013 676.346 47.013C677.843 47.013 679.259 47.2557 680.594 47.7411C681.969 48.2264 683.162 48.9949 684.173 50.0466C685.225 51.0578 686.054 52.3521 686.661 53.9296C687.267 55.507 687.571 57.4081 687.571 59.6327V75.3467C687.571 76.641 687.733 77.5107 688.056 77.9556C688.42 78.4005 689.047 78.623 689.937 78.623V78.987H673.677V78.623C674.567 78.623 675.174 78.4207 675.497 78.0163C675.861 77.5713 676.043 76.7421 676.043 75.5287V59.8754C676.043 58.3788 675.881 57.125 675.558 56.1138C675.234 55.0621 674.789 54.2127 674.223 53.5655C673.697 52.8779 673.07 52.3926 672.342 52.1094C671.614 51.7858 670.846 51.624 670.037 51.624C668.945 51.624 667.832 51.887 666.7 52.4128C665.567 52.8982 664.516 53.5858 663.545 54.4756C662.574 55.3655 661.725 56.4373 660.997 57.6912C660.565 58.4778 660.221 59.3201 659.965 60.2182ZM626.979 50.9567V66.2278C626.719 67.0574 626.376 67.8522 625.948 68.6121C625.26 69.866 624.431 70.9379 623.461 71.8277C622.49 72.7176 621.418 73.4254 620.245 73.9513C619.112 74.4366 618 74.6793 616.908 74.6793C616.099 74.6793 615.33 74.5377 614.602 74.2546C613.874 73.931 613.227 73.4457 612.661 72.7985C612.135 72.1109 611.71 71.2615 611.387 70.2503C611.063 69.1986 610.901 67.9245 610.901 66.428V50.7747C610.901 49.5612 611.063 48.7523 611.387 48.3478C611.751 47.9029 612.378 47.6804 613.268 47.6804V47.3164H597.008V47.6804C597.897 47.6804 598.504 47.9029 598.828 48.3478C599.192 48.7927 599.374 49.6623 599.374 50.9567V66.6706C599.374 68.8953 599.677 70.7963 600.284 72.3738C600.891 73.9512 601.7 75.2658 602.711 76.3174C603.762 77.3286 604.956 78.0769 606.29 78.5623C607.666 79.0477 609.102 79.2904 610.598 79.2904C612.499 79.2904 614.42 78.9466 616.362 78.2589C618.303 77.5713 620.103 76.6006 621.762 75.3467C623.461 74.0524 624.917 72.5154 626.13 70.7356C626.643 69.9917 627.087 69.214 627.465 68.4025V78.987H640.57V78.623C639.68 78.623 639.053 78.4005 638.689 77.9556C638.366 77.5107 638.204 76.641 638.204 75.3467V47.3164H624.674V47.6804C625.523 47.6804 626.11 47.9029 626.433 48.3478C626.797 48.7927 626.979 49.6623 626.979 50.9567ZM575.628 37.0021C572.958 36.6786 569.723 36.5168 565.921 36.5168H559.671H559.489H544.807V36.8808C546.101 36.8808 546.87 37.1842 547.112 37.7909C547.395 38.3571 547.537 39.247 547.537 40.4604V75.0433C547.537 76.2568 547.395 77.1668 547.112 77.7735C546.87 78.3398 546.101 78.623 544.807 78.623V78.987H559.489H559.671H564.161C568.246 78.987 571.927 78.7443 575.203 78.2589C578.48 77.7331 581.291 76.9646 583.637 75.9534C585.983 74.9018 587.783 73.567 589.036 71.9491C590.29 70.3312 590.917 68.3897 590.917 66.1246C590.917 62.1607 588.935 59.0462 584.971 56.7811C581.349 54.6743 576.41 53.2092 570.153 52.3859C572.668 52.158 574.878 51.8636 576.781 51.5027C579.167 51.0173 581.129 50.4308 582.666 49.7432C584.203 49.0556 585.335 48.2466 586.064 47.3163C586.832 46.386 587.216 45.2939 587.216 44.0401C587.216 42.7862 586.812 41.6941 586.003 40.7638C585.234 39.8335 583.98 39.065 582.241 38.4583C580.542 37.8111 578.338 37.3257 575.628 37.0021ZM559.671 77.6522H561.127C563.757 77.6522 566.123 77.45 568.226 77.0455C570.329 76.6006 572.109 75.9332 573.565 75.0433C575.062 74.113 576.194 72.9198 576.963 71.4637C577.772 69.9671 578.176 68.1874 578.176 66.1246C578.176 64.1022 577.812 62.282 577.084 60.6641C576.397 59.0462 575.385 57.671 574.051 56.5384C572.756 55.4059 571.179 54.5363 569.318 53.9296C567.458 53.3228 565.374 53.0195 563.069 53.0195H559.671V77.6522ZM559.671 51.6847V37.8515H561.916C564.343 37.8515 566.386 37.9729 568.044 38.2156C569.702 38.4583 571.057 38.8425 572.109 39.3683C573.161 39.8942 573.909 40.5616 574.354 41.3705C574.839 42.1795 575.082 43.1704 575.082 44.3434C575.082 45.476 574.859 46.5074 574.415 47.4377C573.97 48.3275 573.242 49.096 572.23 49.7432C571.26 50.3499 570.006 50.8353 568.469 51.1993C566.932 51.5229 565.071 51.6847 562.887 51.6847H559.671ZM505.606 38.9436C505.606 37.7302 505.444 36.8808 505.12 36.3954C504.797 35.9101 504.17 35.6674 503.239 35.6674V35.3033H516.83V75.3467C516.83 76.5601 516.931 77.4095 517.133 77.8949C517.335 78.3803 518.003 78.623 519.135 78.623V78.987H503.239V78.623C504.412 78.623 505.1 78.3803 505.302 77.8949C505.504 77.4095 505.606 76.5601 505.606 75.3467V38.9436ZM491.244 49.9859C488.696 47.9635 484.631 46.9523 479.049 46.9523C475.166 46.9523 471.526 47.3973 468.128 48.2871C464.771 49.177 462 50.4106 459.816 51.9881V56.8418H460.18C461.029 55.5475 462.041 54.3745 463.214 53.3229C464.387 52.2712 465.661 51.3814 467.036 50.6533C468.452 49.8848 469.928 49.2983 471.465 48.8938C473.042 48.4489 474.64 48.2264 476.258 48.2264C477.714 48.2264 478.928 48.4085 479.898 48.7725C480.869 49.1365 481.638 49.7432 482.204 50.5926C482.811 51.442 483.235 52.5544 483.478 53.9296C483.688 54.9184 483.82 56.0848 483.874 57.4288C479.873 57.9382 476.263 58.5717 473.042 59.3294C469.645 60.1383 466.753 61.1091 464.366 62.2416C461.98 63.3741 460.14 64.6685 458.845 66.1246C457.591 67.5403 456.964 69.138 456.964 70.9177C456.964 72.0906 457.248 73.203 457.814 74.2546C458.38 75.2658 459.169 76.1557 460.18 76.9242C461.232 77.6927 462.445 78.2994 463.82 78.7443C465.236 79.1488 466.753 79.351 468.371 79.351C470.191 79.351 471.95 79.0881 473.649 78.5623C475.388 78.0365 477.006 77.2882 478.503 76.3174C479.999 75.3467 481.354 74.1737 482.568 72.7985C483.17 72.1188 483.716 71.4019 484.206 70.6476V78.987H497.432V78.623C496.583 78.623 495.976 78.3803 495.612 77.8949C495.289 77.3691 495.127 76.459 495.127 75.1647V59.572C495.127 55.1632 493.833 51.9679 491.244 49.9859ZM483.903 68.9893V58.9047L483.903 58.8298L483.902 58.7316C481.89 59.0785 479.99 59.5204 478.2 60.0574C476.218 60.6237 474.499 61.3315 473.042 62.1809C471.586 63.0303 470.434 64.0415 469.584 65.2145C468.775 66.3471 468.371 67.6414 468.371 69.0975C468.371 70.7963 468.897 72.1311 469.948 73.1018C471.04 74.0321 472.517 74.4973 474.377 74.4973C475.388 74.4973 476.4 74.3557 477.411 74.0726C478.422 73.749 479.372 73.2839 480.262 72.6771C481.193 72.0704 482.022 71.3424 482.75 70.493C483.171 70.0281 483.555 69.5269 483.903 68.9893ZM433.391 48.2264C431.612 48.2264 429.974 48.5702 428.477 49.2579C427.021 49.9455 425.747 50.9162 424.655 52.1701C423.603 53.424 422.774 54.9205 422.167 56.6598C421.601 58.3991 421.318 60.3203 421.318 62.4236C421.318 64.6078 421.621 66.5695 422.228 68.3088C422.875 70.0076 423.785 71.4637 424.958 72.6771C426.171 73.8501 427.648 74.7602 429.387 75.4074C431.126 76.0141 433.068 76.3174 435.212 76.3174C436.991 76.3174 438.69 76.1152 440.308 75.7107C441.926 75.3063 443.402 74.74 444.737 74.0119C446.072 73.2434 447.225 72.3333 448.195 71.2817C449.166 70.2301 449.894 69.0773 450.379 67.8234L450.743 67.8841C450.137 69.6233 449.186 71.2008 447.892 72.6165C446.638 73.9917 445.121 75.1849 443.342 76.1961C441.562 77.2073 439.58 77.996 437.396 78.5623C435.252 79.0881 432.946 79.351 430.479 79.351C427.486 79.351 424.715 78.9466 422.167 78.1376C419.659 77.3286 417.475 76.1961 415.615 74.74C413.794 73.2839 412.358 71.5648 411.307 69.5829C410.296 67.6009 409.79 65.437 409.79 63.091C409.79 60.745 410.316 58.5811 411.368 56.5991C412.419 54.6172 413.896 52.9184 415.797 51.5027C417.698 50.0466 419.963 48.9343 422.592 48.1658C425.221 47.3568 428.093 46.9523 431.207 46.9523C434.483 46.9523 437.557 47.377 440.429 48.2264C443.301 49.0758 445.849 50.3297 448.074 51.9881V56.8418H447.71C446.982 55.5879 446.092 54.4352 445.04 53.3835C443.989 52.3319 442.836 51.4218 441.582 50.6533C440.328 49.8848 438.993 49.2983 437.578 48.8938C436.202 48.4489 434.807 48.2264 433.391 48.2264ZM338.474 87.3597V50.9567C338.474 49.5005 338.332 48.5905 338.049 48.2264C337.766 47.8624 337.119 47.6804 336.107 47.6804V47.3164H349.213V55.3322C349.233 55.2892 349.253 55.2464 349.273 55.2037C350.123 53.424 351.215 51.9274 352.549 50.714C353.884 49.5005 355.441 48.5702 357.221 47.9231C359.041 47.2759 361.044 46.9523 363.228 46.9523C365.695 46.9523 367.96 47.3568 370.023 48.1658C372.086 48.9343 373.845 50.0264 375.301 51.442C376.798 52.8577 377.951 54.5363 378.76 56.4778C379.609 58.4193 380.034 60.563 380.034 62.909C380.034 65.255 379.609 67.4391 378.76 69.4615C377.91 71.4839 376.737 73.2232 375.241 74.6793C373.744 76.1354 371.964 77.2882 369.902 78.1376C367.839 78.9466 365.594 79.351 363.167 79.351C361.023 79.351 359.041 79.0275 357.221 78.3803C355.441 77.6927 353.884 76.7421 352.549 75.5287C351.427 74.4747 350.477 73.2349 349.698 71.8094V87.3597C349.698 88.654 349.86 89.5237 350.183 89.9686C350.547 90.4135 351.154 90.636 352.003 90.636V91H336.168V90.636C337.018 90.636 337.604 90.4135 337.928 89.9686C338.292 89.5237 338.474 88.654 338.474 87.3597ZM349.723 56.9837L349.698 57.0436V69.1948C349.718 69.2434 349.738 69.2919 349.759 69.3402C350.325 70.6345 351.033 71.7468 351.882 72.6771C352.772 73.6074 353.803 74.3355 354.976 74.8613C356.149 75.3871 357.403 75.6501 358.738 75.6501C360.194 75.6501 361.509 75.3467 362.682 74.74C363.895 74.1333 364.927 73.2839 365.776 72.1918C366.666 71.0997 367.333 69.7851 367.778 68.2481C368.263 66.6706 368.506 64.9314 368.506 63.0303C368.506 61.1293 368.263 59.4103 367.778 57.8732C367.333 56.3362 366.686 55.0419 365.837 53.9902C364.987 52.8982 363.956 52.069 362.742 51.5027C361.569 50.896 360.255 50.5926 358.799 50.5926C357.464 50.5926 356.21 50.8555 355.037 51.3814C353.864 51.8667 352.833 52.5746 351.943 53.5049C351.053 54.4352 350.325 55.5677 349.759 56.9025C349.747 56.9295 349.735 56.9565 349.723 56.9837ZM316.722 48.2264C314.093 47.377 311.221 46.9523 308.107 46.9523C305.033 46.9523 302.181 47.3568 299.552 48.1658C296.964 48.9747 294.719 50.1073 292.818 51.5634C290.957 53.0195 289.481 54.7385 288.389 56.7205C287.337 58.7024 286.811 60.8664 286.811 63.2124C286.811 65.5583 287.337 67.7223 288.389 69.7042C289.481 71.6862 290.977 73.385 292.878 74.8007C294.82 76.2163 297.105 77.3286 299.734 78.1376C302.363 78.9466 305.235 79.351 308.35 79.351C311.464 79.351 314.336 78.9668 316.965 78.1983C319.594 77.3893 321.859 76.277 323.76 74.8613C325.661 73.4457 327.138 71.7671 328.189 69.8256C329.241 67.8436 329.767 65.6999 329.767 63.3944C329.767 61.0079 329.221 58.8238 328.129 56.8418C327.037 54.8194 325.52 53.0802 323.578 51.6241C321.677 50.1679 319.392 49.0354 316.722 48.2264ZM304.224 49.1972C305.478 48.4691 306.853 48.1051 308.35 48.1051C309.846 48.1051 311.201 48.4691 312.415 49.1972C313.628 49.8848 314.66 50.896 315.509 52.2308C316.399 53.5251 317.066 55.1026 317.511 56.9632C317.996 58.7833 318.239 60.8462 318.239 63.1517C318.239 65.4572 317.996 67.5403 317.511 69.4009C317.066 71.221 316.399 72.7985 315.509 74.1333C314.66 75.4276 313.628 76.4388 312.415 77.1669C311.201 77.8545 309.846 78.1983 308.35 78.1983C306.853 78.1983 305.478 77.8545 304.224 77.1669C303.011 76.4388 301.959 75.4276 301.069 74.1333C300.179 72.8389 299.492 71.2615 299.006 69.4009C298.561 67.5403 298.339 65.4572 298.339 63.1517C298.339 60.8462 298.561 58.7631 299.006 56.9025C299.492 55.0419 300.179 53.4644 301.069 52.1701C301.959 50.8758 303.011 49.8848 304.224 49.1972ZM264.177 75.3467V60.5787C264.522 59.5563 264.967 58.6747 265.512 57.9339C266.523 56.5587 267.797 55.6082 269.334 55.0823C270.871 54.5161 272.631 54.3543 274.612 54.597C276.594 54.7992 278.718 55.325 280.983 56.1744V46.9523C277.869 46.9523 275.179 47.4984 272.914 48.5905C270.689 49.6826 268.828 51.0578 267.332 52.7161C265.876 54.3745 264.743 56.1542 263.934 58.0553C263.85 58.2638 263.769 58.4709 263.692 58.6765V47.3164H250.586V47.6804C251.517 47.6804 252.144 47.9231 252.467 48.4085C252.791 48.8938 252.953 49.7432 252.953 50.9567V75.3467C252.953 76.5601 252.791 77.4095 252.467 77.8949C252.144 78.3803 251.517 78.623 250.586 78.623V78.987H266.482V78.623C265.552 78.623 264.925 78.3803 264.602 77.8949C264.319 77.4095 264.177 76.5601 264.177 75.3467ZM231.181 36.5168H220.867H219.957H204.789L204 40.2784H204.364C204.485 39.8739 204.991 39.3683 205.881 38.7616C206.811 38.1549 208.126 37.8515 209.824 37.8515H219.957V75.0433C219.957 76.2568 219.795 77.1668 219.471 77.7735C219.188 78.3398 218.298 78.623 216.802 78.623V78.987H235.185V78.623C233.689 78.623 232.799 78.3398 232.516 77.7735C232.233 77.1668 232.091 76.2568 232.091 75.0433V37.8515H241.738C243.518 37.8515 244.913 38.1549 245.924 38.7616C246.935 39.3683 247.481 39.8739 247.562 40.2784H247.926L247.198 36.5168H232.091H231.181Z" fill="#010309"/>
<defs>
<linearGradient id="paint0_linear_1195_603" x1="158.333" y1="19.8731" x2="91.4696" y2="93.8448" gradientUnits="userSpaceOnUse">
<stop offset="0.114025" stop-color="#481D9A"/>
<stop offset="1" stop-color="#0E2A8B"/>
</linearGradient>
<radialGradient id="paint1_radial_1195_603" cx="0" cy="0" r="1" gradientUnits="userSpaceOnUse" gradientTransform="translate(12 79.9343) rotate(-19.7342) scale(161.307 198.067)">
<stop stop-color="#4F1A9C"/>
<stop offset="0.583556" stop-color="#DB5066"/>
<stop offset="1" stop-color="#0E2A8B"/>
</radialGradient>
<linearGradient id="paint2_linear_1195_603" x1="158.333" y1="19.8731" x2="91.4696" y2="93.8448" gradientUnits="userSpaceOnUse">
<stop offset="0.114025" stop-color="#481D9A"/>
<stop offset="1" stop-color="#0E2A8B"/>
</linearGradient>
<radialGradient id="paint3_radial_1195_603" cx="0" cy="0" r="1" gradientUnits="userSpaceOnUse" gradientTransform="translate(12 79.9343) rotate(-19.7342) scale(161.307 198.067)">
<stop stop-color="#4F1A9C"/>
<stop offset="0.583556" stop-color="#DB5066"/>
<stop offset="1" stop-color="#0E2A8B"/>
</radialGradient>
</defs>
</svg>
