<svg width="512" height="512" viewBox="0 0 512 512" fill="none" xmlns="http://www.w3.org/2000/svg">
<path fill-rule="evenodd" clip-rule="evenodd" d="M323.362 372.481C341.782 375.499 356.181 378.18 356.181 378.18C373.682 381.272 401.231 378.395 417.542 371.333C417.542 371.333 412.699 374.366 441.161 360.175C469.622 345.985 480.115 336.262 480.115 336.262C489.569 329.124 496.7 313.752 495.945 301.929C495.945 301.929 494.739 271.944 488.807 227.252C482.874 182.56 478.62 164.854 478.62 164.854C475.72 150.329 462.149 134.281 448.067 129.683C448.067 129.683 394.963 104.19 256.771 104.001C256.514 104 256.257 104 256 104C255.743 104 255.486 104 255.229 104C117.037 104.19 63.9327 129.683 63.9327 129.683C49.8508 134.281 36.2799 150.329 33.3796 164.854C33.3796 164.854 29.1256 182.56 23.1932 227.252C17.2608 271.944 16.0549 301.929 16.0549 301.929C15.2996 313.752 22.4305 329.124 31.8851 336.262C31.8851 336.262 42.3778 345.985 70.8395 360.175C99.3012 374.366 94.4581 371.333 94.4581 371.333C110.769 378.395 138.318 381.272 155.819 378.18C155.819 378.18 169.335 375.664 186.928 372.762C189.949 372.037 191.933 371.173 192.204 369.217C193.556 359.456 197.049 349.787 203.525 344.051C211.487 337 212.379 325.464 210.167 318.336C209.961 317.672 209.805 317.043 209.696 316.447C199.303 297.573 185.741 288.345 172.63 271.64C156.144 250.633 157.294 199.1 161.206 189.77C165.117 180.439 183.302 193.159 213.994 232.87C223.043 244.579 232.934 265.363 241.041 283.43C241.186 283.678 241.327 283.944 241.464 284.231C242.583 286.569 244.303 286.463 244.53 286.393C251.475 284.231 261.516 284.231 267.117 286.346C268.06 286.701 269.222 286.024 269.972 285.153C278.216 266.7 288.451 244.952 297.789 232.87C328.481 193.159 346.666 180.439 350.577 189.77C354.489 199.1 355.639 250.633 339.153 271.64C325.742 288.729 311.857 297.993 301.376 317.763C301.325 317.951 301.269 318.142 301.209 318.336C298.997 325.464 299.889 337 307.851 344.051C314.327 349.787 317.82 359.456 319.172 369.217C319.409 370.928 320.956 371.803 323.362 372.481Z" fill="url(#paint0_linear_181_633)"/>
<path fill-rule="evenodd" clip-rule="evenodd" d="M323.362 372.481C341.782 375.499 356.181 378.18 356.181 378.18C373.682 381.272 401.231 378.395 417.542 371.333C417.542 371.333 412.699 374.366 441.161 360.175C469.622 345.985 480.115 336.262 480.115 336.262C489.569 329.124 496.7 313.752 495.945 301.929C495.945 301.929 494.739 271.944 488.807 227.252C482.874 182.56 478.62 164.854 478.62 164.854C475.72 150.329 462.149 134.281 448.067 129.683C448.067 129.683 394.963 104.19 256.771 104.001C256.514 104 256.257 104 256 104C255.743 104 255.486 104 255.229 104C117.037 104.19 63.9327 129.683 63.9327 129.683C49.8508 134.281 36.2799 150.329 33.3796 164.854C33.3796 164.854 29.1256 182.56 23.1932 227.252C17.2608 271.944 16.0549 301.929 16.0549 301.929C15.2996 313.752 22.4305 329.124 31.8851 336.262C31.8851 336.262 42.3778 345.985 70.8395 360.175C99.3012 374.366 94.4581 371.333 94.4581 371.333C110.769 378.395 138.318 381.272 155.819 378.18C155.819 378.18 169.335 375.664 186.928 372.762C189.949 372.037 191.933 371.173 192.204 369.217C193.556 359.456 197.049 349.787 203.525 344.051C211.487 337 212.379 325.464 210.167 318.336C209.961 317.672 209.805 317.043 209.696 316.447C199.303 297.573 185.741 288.345 172.63 271.64C156.144 250.633 157.294 199.1 161.206 189.77C165.117 180.439 183.302 193.159 213.994 232.87C223.043 244.579 232.934 265.363 241.041 283.43C241.186 283.678 241.327 283.944 241.464 284.231C242.583 286.569 244.303 286.463 244.53 286.393C251.475 284.231 261.516 284.231 267.117 286.346C268.06 286.701 269.222 286.024 269.972 285.153C278.216 266.7 288.451 244.952 297.789 232.87C328.481 193.159 346.666 180.439 350.577 189.77C354.489 199.1 355.639 250.633 339.153 271.64C325.742 288.729 311.857 297.993 301.376 317.763C301.325 317.951 301.269 318.142 301.209 318.336C298.997 325.464 299.889 337 307.851 344.051C314.327 349.787 317.82 359.456 319.172 369.217C319.409 370.928 320.956 371.803 323.362 372.481Z" fill="url(#paint1_radial_181_633)"/>
<path fill-rule="evenodd" clip-rule="evenodd" d="M250.609 395.86C245.874 393.588 242.854 388.625 242.854 388.625C241.584 386.974 242.001 386.55 243.706 387.735C243.706 387.735 248.609 391.954 255.245 391.954C261.881 391.954 266.784 387.735 266.784 387.735C268.518 386.584 268.875 386.942 267.648 388.61C267.648 388.61 264.613 393.595 259.863 395.867L259.25 396.306C257.843 397.314 256.702 399.539 256.702 401.264V402.401C256.702 403.093 256.881 404.184 257.106 404.849L257.112 404.869C257.555 406.179 256.827 407.504 255.469 407.832C255.345 407.862 255.163 407.868 255.013 407.832C253.655 407.504 252.927 406.179 253.37 404.869L253.377 404.849C253.602 404.184 253.78 403.093 253.78 402.401V401.264C253.78 399.539 252.639 397.314 251.232 396.306L250.609 395.86ZM290.992 350.576C294.116 348.091 295.394 342.991 293.176 339.149C290.958 335.307 286.639 334.246 283.792 337.717C280.944 341.188 280.809 350.79 282.795 352.773C284.782 354.755 287.868 353.062 290.992 350.576ZM220.23 350.576C217.106 348.091 215.828 342.991 218.046 339.149C220.264 335.307 224.583 334.246 227.431 337.717C230.278 341.188 230.413 350.79 228.427 352.773C226.44 354.755 223.355 353.062 220.23 350.576Z" fill="url(#paint2_linear_181_633)"/>
<path fill-rule="evenodd" clip-rule="evenodd" d="M250.609 395.86C245.874 393.588 242.854 388.625 242.854 388.625C241.584 386.974 242.001 386.55 243.706 387.735C243.706 387.735 248.609 391.954 255.245 391.954C261.881 391.954 266.784 387.735 266.784 387.735C268.518 386.584 268.875 386.942 267.648 388.61C267.648 388.61 264.613 393.595 259.863 395.867L259.25 396.306C257.843 397.314 256.702 399.539 256.702 401.264V402.401C256.702 403.093 256.881 404.184 257.106 404.849L257.112 404.869C257.555 406.179 256.827 407.504 255.469 407.832C255.345 407.862 255.163 407.868 255.013 407.832C253.655 407.504 252.927 406.179 253.37 404.869L253.377 404.849C253.602 404.184 253.78 403.093 253.78 402.401V401.264C253.78 399.539 252.639 397.314 251.232 396.306L250.609 395.86ZM290.992 350.576C294.116 348.091 295.394 342.991 293.176 339.149C290.958 335.307 286.639 334.246 283.792 337.717C280.944 341.188 280.809 350.79 282.795 352.773C284.782 354.755 287.868 353.062 290.992 350.576ZM220.23 350.576C217.106 348.091 215.828 342.991 218.046 339.149C220.264 335.307 224.583 334.246 227.431 337.717C230.278 341.188 230.413 350.79 228.427 352.773C226.44 354.755 223.355 353.062 220.23 350.576Z" fill="url(#paint3_radial_181_633)"/>
<defs>
<linearGradient id="paint0_linear_181_633" x1="455" y1="134" x2="251.585" y2="356.183" gradientUnits="userSpaceOnUse">
<stop offset="0.114025" stop-color="#481D9A"/>
<stop offset="1" stop-color="#0E2A8B"/>
</linearGradient>
<radialGradient id="paint1_radial_181_633" cx="0" cy="0" r="1" gradientUnits="userSpaceOnUse" gradientTransform="translate(16 316.5) rotate(-19.968) scale(484.634 600.955)">
<stop stop-color="#4F1A9C"/>
<stop offset="0.583556" stop-color="#DB5066"/>
<stop offset="1" stop-color="#0E2A8B"/>
</radialGradient>
<linearGradient id="paint2_linear_181_633" x1="455" y1="134" x2="251.585" y2="356.183" gradientUnits="userSpaceOnUse">
<stop offset="0.114025" stop-color="#481D9A"/>
<stop offset="1" stop-color="#0E2A8B"/>
</linearGradient>
<radialGradient id="paint3_radial_181_633" cx="0" cy="0" r="1" gradientUnits="userSpaceOnUse" gradientTransform="translate(16 316.5) rotate(-19.968) scale(484.634 600.955)">
<stop stop-color="#4F1A9C"/>
<stop offset="0.583556" stop-color="#DB5066"/>
<stop offset="1" stop-color="#0E2A8B"/>
</radialGradient>
</defs>
</svg>
